<svg xmlns="http://www.w3.org/2000/svg" viewBox="0 0 512 512"><path d="M489.2 385.6c-11.1-13.3-23.7-25.3-35.9-36.8-4.3-4.1-8.7-8.2-13-12.4-5.7-5.6-8.5-9.6-8.8-12.5s1.7-7.2 6.2-13.5c6.8-9.5 14-19 21-28.2 6.2-8.2 12.6-16.6 18.8-25.1l1.4-1.9c12-16.6 24.4-33.8 31-54.7 1.9-6 3.9-14.9-.9-22.7-4.8-7.8-13.6-10.1-19.8-11.2-3-.5-5.9-.6-8.6-.6l-77.8-.1c-13.5-.2-22.8 6.2-27.9 19-4.1 10.2-8.9 22.1-14.4 33.3-10.7 21.7-24.2 46.7-43.8 67.5l-.9.9c-1.3 1.4-3.5 3.8-4.6 4.3-2.1-1.3-4.6-9-4.5-13v-.3l-.1-89.9c0-.5 0-.9-.1-1.4-1.7-12.8-5.1-25.7-25.4-29.7-.7-.1-1.3-.2-2-.2h-80.9c-15.2 0-23.3 7-29.7 14.5-1.9 2.2-6.8 8.1-4.3 15.2 2.6 7.2 10.2 8.7 12.7 9.2 8.8 1.7 13.4 6.7 14.8 16.2 2.8 18.5 3.1 38.3 1.1 62.3-.6 6.4-1.6 11.3-3.4 15.4-.5 1.1-.9 1.8-1.2 2.2-.5-.2-1.2-.5-2.2-1.2-6.2-4.2-10.9-10.8-15.4-17.2-18-25.5-33.2-53.6-46.4-86-5.4-13.3-15.6-20.7-28.7-20.9-24.9-.4-48-.4-70.5 0-10.6.2-18 3.5-22.1 9.9s-3.9 14.6.4 24.3c31.2 69.4 59.5 119.8 91.8 163.6 22.8 30.8 45.7 52.2 72.1 67.4 27.8 15.9 59.1 23.7 95.4 23.7 4.1 0 8.3-.1 12.6-.3 22.4-1 31.5-9.9 32.5-31.8.6-11.5 1.8-20.9 6.3-29 1.2-2.3 2.7-3.8 3.8-4.1 1.2-.3 3.3.4 5.6 1.9 4.2 2.8 7.9 6.5 10.9 9.8s6.1 6.8 9.1 10.1c6.3 7.1 12.9 14.4 19.8 21.4 15.5 15.8 33.5 23.1 53.3 21.6h71.9c8.2-.5 15.3-5.1 19.5-12.5 5-8.9 4.9-20.2-.2-30.1-5.3-10.1-12.3-19-18.5-26.4zm1 46.8c-1 1.7-2.2 2.1-2.8 2.1h-72c-14 1.2-25.9-3.8-37.5-15.5-6.5-6.7-12.9-13.8-19.1-20.7-3-3.4-6.1-6.9-9.3-10.3-3.9-4.2-8.7-9.1-14.9-13.1-9.2-6-16.9-5.8-21.7-4.6-4.7 1.2-11.5 4.6-16.7 14-6.7 12.2-8.2 25.4-8.8 37.9-.3 7.6-1.6 9.6-2.2 10.1-.7.7-3.1 1.8-10.9 2.2-37.8 1.8-69.5-5-96.9-20.7-23.9-13.7-44.8-33.3-65.8-61.8-31.4-42.5-59-91.8-89.6-159.8-1.1-2.5-1.5-4-1.5-4.8.8-.3 2.3-.6 5-.6 22.2-.4 45.1-.4 69.8 0 3.4.1 7.2 1.1 10.1 8.2 13.8 33.9 29.7 63.3 48.6 90.1 5 7.1 11.3 15.9 20.5 22.2 8.4 5.8 15.3 5.5 19.5 4.3 4.3-1.2 10.2-4.7 14.2-14.1 2.6-6.1 4.1-12.9 4.9-21.6 2.2-25.7 1.8-47-1.2-67.1-2.1-14.4-9.6-24.8-21.3-30.1 2.1-1.1 4.4-1.5 7.7-1.5h79.9c4.5 1 5.4 2.2 5.7 2.6 1.3 1.7 2 5.8 2.5 9l.1 89.1c-.2 8.5 4 27.5 18.1 32.7.1 0 .2.1.4.1 12.9 4.2 21.4-4.9 25.9-9.8l.8-.9c21.5-22.8 36-49.5 47.3-72.5 5.9-11.9 10.9-24.2 15.1-34.8 2.1-5.3 4-6.2 8.6-6.1h.2l77.9.1c1.8 0 3.7 0 5.2.3 3.7.6 5.2 1.4 5.7 1.7.1.6 0 2.3-1.1 5.8-5.7 17.8-16.6 32.9-28.1 48.9l-1.4 1.9c-6 8.3-12.4 16.7-18.5 24.8-7.1 9.3-14.4 19-21.3 28.7-14.8 20.7-13.5 34.4 5 52.4 4.4 4.3 8.8 8.5 13.2 12.6 12.3 11.6 23.9 22.6 34.2 35 5.4 6.5 11.6 14.4 16 23 2.3 4.4 1.7 8.5.5 10.6z"/></svg>