<svg xmlns="http://www.w3.org/2000/svg" viewBox="0 0 612 612"><path d="M606 114.2c-4.9-3.4-11.4-3.2-16.1.3-3.3 2.5-8.2 4.6-13.9 6.5 18.8-23.3 19.1-38.9 18.8-42.8-.4-5-3.4-9.4-7.9-11.5-4.5-2.1-9.9-1.7-14 1.3-25.7 18.4-51.3 22.4-66.3 22.9-24.4-22.6-55.9-35.1-89.4-35.1-72.5 0-131.5 59-131.5 131.5 0 5.2.3 10.5.9 15.7-121-3-219.1-117-220.1-118.2-2.9-3.4-7.3-5.3-11.8-4.9-4.5.4-8.5 2.9-10.8 6.8-30.8 52.6-18.2 102.5 2.9 137.4-3.9-2.1-8.7-2.2-12.7-.2-4.6 2.3-7.6 7-7.7 12.2-.9 55.3 24.4 88.4 49.8 107.7-1.9.8-3.6 1.9-5 3.5-3.3 3.6-4.5 8.8-3 13.5 17.7 57.1 59.3 78.5 88.5 86.6-33.5 23.6-74.9 29.1-106.4 29.1-20.1 0-33.9-2.4-34.1-2.4-6.3-1.1-12.6 2.3-15.1 8.1-2.6 5.9-.7 12.7 4.4 16.6 63.1 47.5 139.4 57.4 192.3 57.4 41.8 0 70.8-6.1 72.3-6.4 271.3-63.4 281.6-306.6 281.2-350.9 50.9-46.7 59-65 60.2-69.5 1.6-5.8-.7-11.9-5.5-15.2zm-78.1 68.4c-3.1 2.9-4.8 7-4.5 11.2.2 2.6 15 264.8-259.4 328.9-.3.1-27.6 5.8-66.2 5.8-36 0-83.7-4.9-129.1-24.9 41.6-2.7 92.7-15.4 129.4-56.1 3.7-4.1 4.6-9.9 2.3-14.9-2.2-5-7.2-8.2-12.7-8.2-2.6 0-57.2-.7-84.5-51.4 12.6.4 24.1-1.5 32.6-5.3 5.4-2.5 8.7-8.2 8-14.1-.6-5.9-5-10.8-10.9-12.1-3-.6-65.8-15-77.1-81.2 9.8 3.8 21.8 6.4 33.4 4.7 5.4-.8 9.8-4.7 11.3-9.9s-.2-10.9-4.3-14.4c-2.8-2.4-62.7-54.4-36.7-122.6C94.4 153.4 189.4 236.8 304 230.4c4.1-.2 8-2.3 10.4-5.7 2.4-3.3 3.3-7.6 2.2-11.6-2.1-8.4-3.2-17.1-3.2-25.8 0-57.2 46.5-103.7 103.7-103.7 28 0 54.3 11 74 31 2.6 2.6 6 4.1 9.7 4.1h2.1c10.2 0 26.2-1.2 44.5-7.1-5.9 6.2-13.5 13.2-23.4 20.8-4.9 3.8-6.7 10.3-4.5 16 2.2 5.7 8 9.3 14 8.8 2.2-.2 12.1-1 24.3-3.2-7.6 7.8-17.4 17.3-29.9 28.6z"/></svg>