<svg xmlns="http://www.w3.org/2000/svg" width="207.5" height="209.5" viewBox="0 0 207.5 209.5"><path fill="none" stroke="#2D2829" stroke-width="5" stroke-linecap="round" stroke-dasharray="0,15" d="M102.1 3.4c55 0 99.6 45 99.6 100.5s-44.6 100.5-99.6 100.5S2.5 159.5 2.5 104C2.5 48.4 47.1 3.4 102.1 3.4z"/><path fill="none" stroke="#2D2829" stroke-width="5" stroke-linecap="round" stroke-dasharray="0,15" d="M102.1 34.2c38.7 0 70 31.2 70 69.8s-31.3 69.8-70 69.8-70-31.2-70-69.8 31.3-69.8 70-69.8z"/><path fill="none" stroke="#2D2829" stroke-width="5" stroke-linecap="round" stroke-dasharray="0,15" d="M102.1 56.3c26.3 0 47.6 21.3 47.6 47.7s-21.3 47.7-47.6 47.7-47.6-21.4-47.6-47.7 21.3-47.7 47.6-47.7z"/></svg>