<svg xmlns="http://www.w3.org/2000/svg" viewBox="0 0 512 512"><path d="M373.7 0H138.3C62.1 0 0 62.1 0 138.3v235.3C0 449.9 62.1 512 138.3 512h235.3c76.3 0 138.3-62.1 138.3-138.3V138.3C512 62.1 449.9 0 373.7 0zm96.9 373.7c0 53.5-43.5 97-97 97H138.3c-53.5 0-97-43.5-97-97V138.3c0-53.5 43.5-97 97-97h235.3c53.5 0 97 43.5 97 97v235.4z"/><path d="M370.6 238.1c-3.6-24.5-14.8-46.8-32.4-64.3-17.5-17.5-39.8-28.7-64.3-32.4-11.2-1.7-22.5-1.7-33.7 0-30.3 4.5-57.1 20.5-75.4 45.2s-25.9 54.9-21.4 85.2c4.5 30.3 20.5 57.1 45.2 75.4 20 14.8 43.7 22.6 68.2 22.6 5.7 0 11.4-.4 17.1-1.3 30.3-4.5 57.1-20.5 75.4-45.2 18.2-24.6 25.8-54.8 21.3-85.2zm-102.8 89.5c-19.4 2.9-38.8-2-54.5-13.7s-26-28.8-28.9-48.2c-2.9-19.4 2-38.8 13.7-54.5 11.7-15.8 28.8-26 48.2-28.9 3.6-.5 7.2-.8 10.8-.8 3.6 0 7.2.3 10.8.8 32.2 4.8 57.1 29.6 61.9 61.9 5.8 40.1-21.9 77.5-62 83.4zM400 112c-3.9-3.9-9.2-6.1-14.6-6.1s-10.8 2.2-14.6 6.1c-3.9 3.9-6.1 9.2-6.1 14.6 0 5.5 2.2 10.8 6.1 14.6 3.9 3.9 9.2 6.1 14.6 6.1s10.8-2.2 14.6-6.1c3.9-3.9 6.1-9.2 6.1-14.6 0-5.5-2.2-10.8-6.1-14.6z"/></svg>