<svg xmlns="http://www.w3.org/2000/svg" viewBox="0 0 33 32"><g ><path d="M31.24,7.21H26.66a4.4,4.4,0,0,0,1.2-3V4A4.05,4.05,0,0,0,25.73.54a4.33,4.33,0,0,0-4.19,0L19.46,1.7a7.15,7.15,0,0,0-3,3.08,7.15,7.15,0,0,0-3-3.08L11.46.55a4.28,4.28,0,0,0-4.19,0A4,4,0,0,0,5.14,4V4.2a4.37,4.37,0,0,0,1.2,3H1.76A1.75,1.75,0,0,0,0,8.93V13a1.74,1.74,0,0,0,1.76,1.72h.81V30.27A1.74,1.74,0,0,0,4.33,32H28.67a1.74,1.74,0,0,0,1.76-1.73V14.75h.81A1.74,1.74,0,0,0,33,13V8.93A1.74,1.74,0,0,0,31.24,7.21ZM20.18,3l2.08-1.16a2.86,2.86,0,0,1,2.75,0A2.66,2.66,0,0,1,26.4,4v.18a3.06,3.06,0,0,1-3.08,3h-6A5.66,5.66,0,0,1,20.18,3ZM6.6,4A2.64,2.64,0,0,1,8,1.8a2.81,2.81,0,0,1,2.75,0L12.82,3a5.7,5.7,0,0,1,2.9,4.26h-6a3,3,0,0,1-3.08-3Zm6.6,12.93h-3a.7.7,0,0,0-.74.69.72.72,0,0,0,.69.75H13.2V30.56H4.33a.3.3,0,0,1-.3-.29H4V14.75H13.2v2.19Zm0-3.62H1.76A.29.29,0,0,1,1.47,13h0V8.93a.28.28,0,0,1,.29-.28H13.2v4.67Zm5.13,17.24H14.67V8.65h3.66ZM29,30.27a.31.31,0,0,1-.3.29H19.8V18.38h2.79a.73.73,0,0,0,.75-.7.72.72,0,0,0-.69-.74H19.8V14.75H29V30.27ZM31.53,13a.29.29,0,0,1-.29.29H19.8V8.65H31.24a.28.28,0,0,1,.29.28h0V13Zm-5.45,5.35h.07a.73.73,0,0,0,.75-.7.72.72,0,0,0-.7-.74h-.12a.72.72,0,0,0-.75.69.73.73,0,0,0,.69.75Zm-19.46,0H6.7a.73.73,0,0,0,.75-.7.72.72,0,0,0-.7-.74H6.62a.71.71,0,0,0-.74.69.72.72,0,0,0,.69.75Z"/></g></g></svg>